<svg width="19" height="19" viewBox="0 0 19 19" fill="none" xmlns="http://www.w3.org/2000/svg">
<path d="M18.5669 2.83732e-07H16.8076C16.7473 -6.77854e-05 16.6876 0.0121125 16.6321 0.0358026C16.5767 0.0594926 16.5266 0.0941989 16.485 0.137817C16.4433 0.181435 16.411 0.233055 16.3899 0.289549C16.3688 0.346042 16.3594 0.406231 16.3623 0.466465L16.5107 3.53764C15.6477 2.52065 14.5734 1.70391 13.3627 1.14424C12.152 0.584566 10.8338 0.295406 9.5 0.296875C4.42863 0.296875 0.293167 4.43568 0.296877 9.50705C0.300588 14.5866 4.41973 18.7031 9.5 18.7031C11.7789 18.7063 13.9774 17.8609 15.6668 16.3315C15.712 16.2911 15.7484 16.2419 15.7739 16.187C15.7993 16.132 15.8133 16.0724 15.815 16.0119C15.8167 15.9513 15.806 15.8911 15.7836 15.8348C15.7611 15.7786 15.7275 15.7275 15.6847 15.6846L14.4229 14.4229C14.3431 14.3431 14.2359 14.2966 14.123 14.2928C14.0102 14.289 13.9001 14.3282 13.8151 14.4025C12.8181 15.2797 11.5775 15.8321 10.2586 15.9861C8.93965 16.1402 7.6051 15.8885 6.43284 15.2647C5.26058 14.641 4.3063 13.6747 3.69722 12.4947C3.08814 11.3148 2.85319 9.9772 3.0237 8.66031C3.19421 7.34341 3.76207 6.10978 4.65159 5.12385C5.5411 4.13793 6.71001 3.44656 8.00248 3.14191C9.29495 2.83727 10.6496 2.93382 11.8858 3.4187C13.122 3.90358 14.181 4.75374 14.9217 5.85586L11.154 5.67514C11.0937 5.67227 11.0335 5.68167 10.9771 5.70277C10.9206 5.72386 10.8689 5.75621 10.8253 5.79785C10.7817 5.83949 10.747 5.88955 10.7233 5.945C10.6996 6.00046 10.6874 6.06015 10.6875 6.12045V7.87981C10.6875 7.99791 10.7344 8.11118 10.8179 8.19469C10.9014 8.2782 11.0147 8.32512 11.1328 8.32512H18.5669C18.685 8.32512 18.7983 8.2782 18.8818 8.19469C18.9653 8.11118 19.0122 7.99791 19.0122 7.87981V0.445313C19.0122 0.327209 18.9653 0.213942 18.8818 0.130429C18.7983 0.046917 18.685 2.83732e-07 18.5669 2.83732e-07V2.83732e-07Z" fill="white"/>
</svg>
