<svg width="22" height="22" viewBox="0 0 22 22" fill="none" xmlns="http://www.w3.org/2000/svg">
<path d="M21.4986 3.28531e-07H19.4614C19.3916 -7.84884e-05 19.3225 0.014025 19.2583 0.0414556C19.1941 0.0688862 19.1361 0.109072 19.0879 0.159577C19.0397 0.210082 19.0022 0.269853 18.9778 0.335267C18.9534 0.40068 18.9425 0.470372 18.9458 0.540118L19.1177 4.09621C18.1184 2.91865 16.8745 1.97295 15.4726 1.32491C14.0707 0.676866 12.5444 0.34205 11 0.34375C5.12789 0.34375 0.339456 5.13606 0.343753 11.0082C0.34805 16.8897 5.11758 21.6563 11 21.6563C13.6387 21.66 16.1843 20.681 18.1405 18.9101C18.1928 18.8634 18.235 18.8064 18.2645 18.7428C18.294 18.6792 18.3102 18.6102 18.3121 18.5401C18.3141 18.47 18.3017 18.4002 18.2757 18.3351C18.2498 18.2699 18.2108 18.2107 18.1612 18.1612L16.7002 16.7002C16.6078 16.6078 16.4837 16.5539 16.353 16.5496C16.2223 16.5452 16.0949 16.5906 15.9964 16.6766C14.842 17.6922 13.4055 18.3319 11.8783 18.5102C10.3512 18.6886 8.80591 18.3972 7.44855 17.675C6.0912 16.9527 4.98625 15.8339 4.28099 14.4676C3.57574 13.1013 3.3037 11.5526 3.50113 10.0277C3.69856 8.5029 4.35608 7.07448 5.38605 5.93288C6.41601 4.79128 7.76948 3.99075 9.26603 3.63801C10.7626 3.28526 12.3311 3.39706 13.7625 3.95849C15.1939 4.51993 16.4201 5.50433 17.2777 6.78047L12.9151 6.57121C12.8454 6.5679 12.7757 6.57878 12.7103 6.6032C12.6449 6.62763 12.5851 6.66508 12.5346 6.7133C12.4841 6.76151 12.4439 6.81948 12.4165 6.88369C12.389 6.9479 12.3749 7.01701 12.375 7.08684V9.12399C12.375 9.26074 12.4293 9.39189 12.526 9.48859C12.6227 9.58529 12.7539 9.63961 12.8906 9.63961H21.4986C21.6353 9.63961 21.7665 9.58529 21.8632 9.48859C21.9599 9.39189 22.0142 9.26074 22.0142 9.12399V0.515625C22.0142 0.378873 21.9599 0.247722 21.8632 0.151023C21.7665 0.0543249 21.6353 3.28531e-07 21.4986 3.28531e-07V3.28531e-07Z" fill="white"/>
</svg>
