<svg width="19" height="19" viewBox="0 0 19 19" fill="none" xmlns="http://www.w3.org/2000/svg">
<path d="M6.86111 1.68889C9.71111 1.68889 12.0333 4.01111 12.0333 6.86111C12.0333 9.71111 9.71111 12.0333 6.86111 12.0333C4.01111 12.0333 1.68889 9.71111 1.68889 6.86111C1.68889 4.01111 4.01111 1.68889 6.86111 1.68889V1.68889ZM6.86111 0C3.06111 0 0 3.06111 0 6.86111C0 10.6611 3.06111 13.7222 6.86111 13.7222C10.6611 13.7222 13.7222 10.6611 13.7222 6.86111C13.7222 3.06111 10.6611 0 6.86111 0V0ZM13.8278 12.1389L19 17.3111L17.3111 19L12.1389 13.8278V12.9833L12.9833 12.1389H13.8278V12.1389Z" fill="white"/>
</svg>
