<svg width="22" height="22" viewBox="0 0 22 22" fill="none" xmlns="http://www.w3.org/2000/svg">
  <path d="M7.94444 1.95556C11.2444 1.95556 13.9333 4.64444 13.9333 7.94444C13.9333 11.2444 11.2444 13.9333 7.94444 13.9333C4.64444 13.9333 1.95556 11.2444 1.95556 7.94444C1.95556 4.64444 4.64444 1.95556 7.94444 1.95556V1.95556ZM7.94444 0C3.54444 0 0 3.54444 0 7.94444C0 12.3444 3.54444 15.8889 7.94444 15.8889C12.3444 15.8889 15.8889 12.3444 15.8889 7.94444C15.8889 3.54444 12.3444 0 7.94444 0V0ZM16.0111 14.0556L22 20.0444L20.0444 22L14.0556 16.0111V15.0333L15.0333 14.0556H16.0111V14.0556Z" fill="white"/>
</svg>
