<svg width="18" height="20" viewBox="0 0 18 20" fill="none" xmlns="http://www.w3.org/2000/svg">
<path d="M13.3571 12.5C12.2719 12.5 11.3004 12.9883 10.6326 13.7617L7.0087 11.4297C7.37299 10.5156 7.37678 9.48438 7.0087 8.57031L10.6326 6.23828C11.3004 7.01172 12.2719 7.5 13.3571 7.5C15.3683 7.5 17 5.82031 17 3.75C17 1.67969 15.3683 0 13.3571 0C11.346 0 9.71428 1.67969 9.71428 3.75C9.71428 4.25781 9.81295 4.73828 9.9875 5.17969L6.36362 7.51172C5.69955 6.73828 4.72812 6.25 3.64286 6.25C1.6317 6.25 0 7.92969 0 10C0 12.0703 1.6317 13.75 3.64286 13.75C4.72812 13.75 5.69955 13.2617 6.36741 12.4883L9.99129 14.8203C9.81295 15.2617 9.71808 15.7422 9.71808 16.25C9.71808 18.3203 11.3498 20 13.3609 20C15.3721 20 17.0038 18.3203 17.0038 16.25C17 14.1797 15.3683 12.5 13.3571 12.5ZM13.3571 1.25C14.6967 1.25 15.7857 2.37109 15.7857 3.75C15.7857 5.12891 14.6967 6.25 13.3571 6.25C12.0176 6.25 10.9286 5.12891 10.9286 3.75C10.9286 2.37109 12.0176 1.25 13.3571 1.25ZM3.64286 12.5C2.30335 12.5 1.21429 11.3789 1.21429 10C1.21429 8.62109 2.30335 7.5 3.64286 7.5C4.98237 7.5 6.07143 8.62109 6.07143 10C6.07143 11.3789 4.98237 12.5 3.64286 12.5ZM13.3571 18.75C12.0176 18.75 10.9286 17.6289 10.9286 16.25C10.9286 14.8711 12.0176 13.75 13.3571 13.75C14.6967 13.75 15.7857 14.8711 15.7857 16.25C15.7857 17.6289 14.6967 18.75 13.3571 18.75Z" fill="white"/>
</svg>
